/* XPM */
static char *_3580f650fea445f944bba1e938ecb03UA72TPTQId1cjcBx[] = {
/* columns rows colors chars-per-pixel */
"64 64 256 2 ",
"   c #020303",
".  c #040A0B",
"X  c #0D0D0A",
"o  c #060806",
"O  c #120E0A",
"+  c #170C06",
"@  c #0A120C",
"#  c #14120D",
"$  c #1A130D",
"%  c #1B1106",
"&  c #0C0D11",
"*  c #081717",
"=  c #141412",
"-  c #1A1512",
";  c #1C1915",
":  c #1C1C1B",
">  c #161818",
",  c #120D14",
"<  c #24170C",
"1  c #341A0B",
"2  c #241B14",
"3  c #2A1C14",
"4  c #231D1B",
"5  c #281A16",
"6  c #361E18",
"7  c #2B0D07",
"8  c #1A221D",
"9  c #03241E",
"0  c #24211C",
"q  c #2D241B",
"w  c #292518",
"e  c #34241C",
"r  c #35291C",
"t  c #392719",
"y  c #0F1E21",
"u  c #092528",
"i  c #1A2424",
"p  c #092B32",
"a  c #093336",
"s  c #133133",
"d  c #242423",
"f  c #2B2A26",
"g  c #292927",
"h  c #342A23",
"j  c #3B2C23",
"k  c #362927",
"l  c #33312D",
"z  c #3C322B",
"x  c #3C3324",
"c  c #2A3434",
"v  c #383836",
"b  c #292F33",
"n  c #271E22",
"m  c #422C1D",
"M  c #45251C",
"N  c #48321D",
"B  c #562F19",
"V  c #452C25",
"C  c #433424",
"Z  c #44342C",
"A  c #4C3728",
"S  c #53352B",
"D  c #563A2A",
"F  c #4B3B34",
"G  c #453A36",
"H  c #573D34",
"J  c #552C2F",
"K  c #663B2D",
"L  c #663531",
"P  c #461F27",
"I  c #2B413B",
"U  c #1D4334",
"Y  c #58422D",
"T  c #4B423A",
"R  c #54443B",
"E  c #5C443A",
"W  c #584637",
"Q  c #4C4D2D",
"!  c #634C3D",
"~  c #6B4C3C",
"^  c #664538",
"/  c #734C3C",
"(  c #6B543C",
")  c #75563D",
"_  c #64462B",
"`  c #113945",
"'  c #273744",
"]  c #413C41",
"[  c #15484A",
"{  c #16575B",
"}  c #125052",
"|  c #3A4342",
" . c #2E5051",
".. c #195A64",
"X. c #335663",
"o. c #186768",
"O. c #1A6B72",
"+. c #197479",
"@. c #166D66",
"#. c #237779",
"$. c #296B6C",
"%. c #356359",
"&. c #434443",
"*. c #4C4946",
"=. c #4C4B49",
"-. c #484744",
";. c #534D4A",
":. c #584A46",
">. c #5D534E",
",. c #56524B",
"<. c #5C5552",
"1. c #595857",
"2. c #495452",
"3. c #674B44",
"4. c #764B44",
"5. c #6D5243",
"6. c #67554A",
"7. c #735544",
"8. c #785847",
"9. c #645956",
"0. c #775C54",
"q. c #6C4E50",
"w. c #7B6346",
"e. c #786458",
"r. c #6B675A",
"t. c #4C5A66",
"y. c #556D78",
"u. c #776865",
"i. c #6E6D6C",
"p. c #576457",
"a. c #8A4931",
"s. c #855948",
"d. c #87544F",
"f. c #84644B",
"g. c #846353",
"h. c #896557",
"j. c #956858",
"k. c #99735A",
"l. c #887255",
"z. c #876C65",
"x. c #997468",
"c. c #8A7877",
"v. c #91756D",
"b. c #A77768",
"n. c #B47C6B",
"m. c #A87C74",
"M. c #B27D76",
"N. c #A16656",
"B. c #25817F",
"V. c #52817B",
"C. c #918679",
"Z. c #B8816E",
"A. c #AB8678",
"S. c #B98776",
"D. c #AE8C71",
"F. c #C28B79",
"G. c #C4937E",
"H. c #1C7A81",
"J. c #247B85",
"K. c #6E7A8C",
"L. c #566781",
"P. c #1C8988",
"I. c #288789",
"U. c #298894",
"Y. c #2B9695",
"T. c #349191",
"R. c #2E9BA2",
"E. c #37A8A9",
"W. c #3AB1AF",
"Q. c #38A29D",
"!. c #778EA5",
"~. c #47B5B8",
"^. c #52AFB1",
"/. c #689AA7",
"(. c #48C3BB",
"). c #76C0BF",
"_. c #49B9C6",
"`. c #6BBDC8",
"'. c #55C6C8",
"]. c #5ACAD4",
"[. c #51C7CC",
"{. c #65CBCC",
"}. c #67CCD6",
"|. c #6AD4D6",
" X c #77D6DA",
".X c #74C9D4",
"XX c #77DCE2",
"oX c #93928E",
"OX c #959594",
"+X c #97989B",
"@X c #9C9C9C",
"#X c #999797",
"$X c #978A85",
"%X c #B98B82",
"&X c #BB9386",
"*X c #A19D9A",
"=X c #AA9085",
"-X c #A2A19E",
";X c #ABA39C",
":X c #B6A999",
">X c #9D9EA1",
",X c #9895A0",
"<X c #8194AB",
"1X c #A3A3A4",
"2X c #A8A7A6",
"3X c #AAA9A6",
"4X c #A5A6A9",
"5X c #ABABAB",
"6X c #A8A8A8",
"7X c #B2AEAC",
"8X c #B3ACA5",
"9X c #B3B1AE",
"0X c #BBB4AB",
"qX c #ADAEB1",
"wX c #A6ADB7",
"eX c #B1AFB2",
"rX c #AFB1B3",
"tX c #B4B3B3",
"yX c #B9B5B4",
"uX c #BCB8B7",
"iX c #B6B6B9",
"pX c #BDBBBB",
"aX c #B7B7B8",
"sX c #A69CA4",
"dX c #C29384",
"fX c #C89887",
"gX c #CB9B91",
"hX c #D1A18C",
"jX c #D7A697",
"kX c #CBA38D",
"lX c #C2BDBC",
"zX c #C3BBB8",
"xX c #D5AFA4",
"cX c #E3B4AA",
"vX c #C4C1BE",
"bX c #C9C0BB",
"nX c #8EB7C8",
"mX c #BFBFC1",
"MX c #A9B4CE",
"NX c #C5BEC2",
"BX c #89D0D4",
"VX c #BDC1C4",
"CX c #8CDCE6",
"ZX c #91E5EE",
"AX c #B3EEF5",
"SX c #C4C3C3",
"DX c #C9C4C3",
"FX c #CAC9C9",
"GX c #DAD7D5",
"HX c #E2DDD9",
"JX c #E5E3DD",
"KX c #D2D4F1",
"LX c #EAECE5",
"PX c #FDFAF3",
"IX c #F1F1E9",
"UX c #C5F7FF",
/* pixels */
"+X+X+X+X+X+X+X+X+X+X+X+X+X+X+X+X+X+X+X+X+X@X+X@X+X+X+X+X+X+X+X+X+X+X+X+X+X#X+X+X+X+XOXOXOXOXOXOXOXOXOXOXOXOXOXOXOXoXoXoXoXoXoXoX",
">X>X>X>X>X@X@X@X@X@X@X@X@X@X@X@X@X@X@X@X@X@X@X@X@X@X@X@X@X@X@X@X@X@X@X@X@X@X@X@X+X+X+X+X+X#X+X+XOXOXOXOXOXOXOXOXOXOXOXOXOXOXOXOX",
">X>X>X>X>X>X>X>X>X>X>X>X>X>X>X>X>X>X1X1X1X1X1X1X1X1X1X1X1X1X1X1X1X1X1X1X1X@X@X@X*X@X@X@X@X@X@X@X+X+X+X+X+X+X+X+X#X#X#XOXOXOXOXOX",
"1X1X1X1X1X>X1X>X1X1X1X1X1X1X1X1X1X1X1X1X4X4X4X4X4X4X4X4X4X4X4X1X1X1X1X1X1X1X1X1X1X1X1X1X-X-X@X@X*X*X@X@X@X@X@X@X@X@X@X@X@X@X+X+X",
"4X4X4X4X4X4X4X4X1X1X1X4X4X4X4X4X4X4X4X4X4X4X4X4X5X5X5X5X6X4X4X4X4X4X4X4X4X4X4X4X4X4X4X1X1X1X1X1X-X-X-X-X-X-X*X*X*X@X*X*X@X@X@X@X",
"4X4X4X4X4X4X4X4X4X4X4X4X4X4X4X4X4X5X5X5X5X5X5X5X5X5X5X5X5X5X6X5X4X6X5X5X5X5X6X6X2X2X4X4X4X4X1X1X1X1X1X1X1X1X1X1X-X-X-X-X-X-X-X-X",
"4X4X4X4X4X6X6X6X5X5X5X5X5X5X5X5X5X5X5X5X5X5X5X5X5X5X5X5X5X5X5X5X5X5X5X5X5X5X5X6X5X5X5X6X6X2X2X2X2X2X4X4X4X1X1X1X1X1X1X1X1X1X1X1X",
"5X5X5X5X5X5X5X5X5X5X5X5X5X5X5X5X5X5X5X5X5X5X5X5X5X5X5X5X5X5X9XtX9X9X9X5X5X5X5X5X5X5X5X5X5X6X5X5X6X6X6X6X6X2X2X6X2X4X4X1X1X1X1X1X",
"5X5X5X5X5X5X5X5X2XtX5X5XtXrX5XqX9X6X9XtX5XeX5XeXtX*X;X8X:X8X;X#XsX8X*X;X;X9XtXrX5XqX5XtX8X8X8X3X5X5X5X6X6X5X5X6X6X6X6X6X6X2X2X2X",
"5X5XqXqXqXqXqXqXtX5XiXiX5XqX5X5XwXiXrXrXrXtX9X-Xl.( Y Y ! w.l.w.( w.f.l.v.=XC.C.-X9XtX5X7X7X5X5X5X5X5X5X5X5X5X5X5X5X3X5X6X6X6X6X",
"rXrXrXrXrXrXrXrXiXqXqXrXtXiXuXuXpXuX7X0X0X=Xz.5.Y ! Y D m N ) l.k.l.f.w.) ( 7.e.C.;X9X9X9X9XtXrX7X7X9X9X7X5X7X5X5X5X5X5X5X5X5X5X",
"tXtXtXtXtXtXtXtXrXiXiXuX7X#X$XC.C.C.C.e.E W C C S ! 7.8.) _ _ D A ( f.l.w._ ) l.7.v.;X0X0X8XtXaX9X9X9X9X9X9X7X7X5X5X5X5X7X7X7X7X",
"tXtXtXtXtXtXtXtXrXtX9X*Xu.:.T x C C C h h q $ + O - 0 r F R Z e t 7 < t ( l.w.( ~ ! 0.u.C.$X#X8XyXtX9X9XtXtX9X7X7X7X7X7X7X7X7X7X",
"iXiXiXtXiXiXiXiXiXuX-X>.x Z x r e e e x x w < < < < r j j C N Y E E W C t 1 m H ~ Y m m 6.e.u.;XyXyXtXtXtXyXtX9X9X9X9X9X9X9X9X9X",
"iXiXiXiXiXiXiXiX9XtXu.e r Z x r j Z C C C A Y Y x w < 2 3 r A Y A A t t t 1 C A Y W W A D A R c.7XyXyXyXtXyXyXtXyXyXtXtXtXtXtXtX",
"iXiXiXiXiXiXiXiXuX-XT j F j Z j ; # ; ; < 3 h z F Z e 1 m D H M % + $ O $ $ % % + + 3 t t A W r.5XtXuXyXtXyXyXtXyXyXyXyXyXtXtXtX",
"aXpXaXiXpXpXaXpX0Xr.z e j h 4 ; X X O # # $ ; 2 Z z C A C w $ # q q 3 < % O O X #   X + < x F Y $X0XyXpXtXyXuXtXyXyXyXyXyXyXyXyX",
"pXaXaXpXiXaXaXmX*Xv q q 5 $ # O X X O # # $ ; ; 2 e e 3 % % 3 r M S H K H S V m 3 % + O $ % % t Z *XvXtXpXuXtXuXyXyXyXyXyXyXyXyX",
"pXiXpXSXiXmXpXSXOXg 4 2 - = # . O # = # = # O X % % # - 2 t H 8.s.j.b.b.b.b.j.j.s.K 6 + + $ % < r G ;XvXyXlXuXyXuXuXuXuXyXuXuXuX",
"pXpXmXmXiXSXpXSXi.: : # X o o # $ ; ; - - - - # $ # # < e H h.S.S.dXfXG.G.G.G.F.S.b.8.m % < 0 ; 3 Z u.zXuXaXuXzXuXuXuXuXuXuXuXuX",
"mXSXmXpXpXVXpXFXr.O - - - O X ; h z z k k h 4 2 = ; < 1 S h.%XjXkXjXjXhXfXhXhXfXfXG.Z.g.S < $ # 3 Z 9.0XuXaXNXuXuXuXuXuXuXuXuXuX",
"mXSXmXSXSXpXpXFX<.O # ; ; 4 q 3 h Z Z z j e 5 5 4 6 m ^ x.fXjXjXcXcXcXjXjXjXjXhXkXfXS.n.g.M % ; j t 6.=XlXSXaXzXlXuXuXuXuXuXlXlX",
"VXmXSXSXDXpXDXtXl # ; = X - h e h j e 6 e t t V t A 7.m.gXcXcXcXcXcXxXjXjXjXjXjXkXhXfXG.x.H t r r A ! c.uXiXDXzXlXlXlXlXlXlXlXlX",
"SXSXSXpXSXSXDXoX; ; ; > = O 5 h R E R H E E E ! s.x.%XfXgXxXxXxXxXjXjXjXhXhXhXhXjXhXfXfXb.~ A t C Y D e.zXVXpXzXlXlXlXlXlXlXlXlX",
"SXVXSXSXSXSXpX=.0 ; : > > ; 0 G 9.9.z.z.7./ s.f.b.M.A.&X%X%X&X%X&X&XfXdX%XdXfXfXkXfXG.fXdXj.H M m z A 7.0XlXlXVXlXlXlXlXlXlXlXlX",
"SXSXSXSXSXSXtXv : 4 d > & > f T e.c.c.3.F Z j j r Z E 3.h.x.b.b.b.M.n.b.j.h.7.4.3.~ / K j.A.8.t t 5 A ( 0XDXlXSXlXlXlXlXlXlXlXlX",
"VXSXSXFXDXFXtXl : 0 : = @ > k 6.z.u.F Z F Z Z Z r < 3 e A ! g.m.A.m.h./ D t % % 2 q C E A D g.N q $ r A -XDXlXvXvXvXvXvXvXvXvXvX",
"SXDXSXFXSXDX1X: 4 : # X = ; G u.i.;.F :.e.v.z.e.q.J F F Z F h.&XxXdXj.K V V Z F ~ z.x.k.h.~ ^ D w - h A -XFXvXvXvXvXSXSXSXSXSXSX",
"SXDXSXDXSXDX-X# : 0 = O # 4 *.u.9.9.9.r.:.x j q 5 h e h j ! x.gXcXhXb.K M 6 j 5 m M S ! g.g.7.^ < > 3 C 3XFXlXSXSXSXSXSXSXSXSXSX",
"SXDXSXSXDXFX5X: = d ; # o 4 9.c.u.>.F 5 - f > . 2 Z e e H 8.x.fXcXjXb._ M 1 j < o X q < t 7.s.) < O < F yXDXlXFXSXDXSXSXSXSXSXSX",
"DXDXDXSXSXDXpX&.O 4 4 = o f u.c.e.e.6.6.6.q.3.q.7.e.0.0.z.v.x.&XcXjXn.N.s./ 4.3.H 3.3.^ ^ ~ f.h.r $ 3 E vXFXvXvXDXDXDXDXSXSXSXSX",
"FXSXDXFXSXSXGXC.# ; ; ; X l c.$X=X=X%X%XA.m.A.A.%Xm.%Xm.b.x.m.S.xXjXZ.Z.b.b.b.b.n.k.n.Z.S.S.b.D.Y 2 3 Y 3XDXDXSXDXDXDXDXDXDXDXDX",
"FXFXFXFXFXFXDXlXd = @ > - :.c.$X&X&XdXdXdX&X%X%XS.S.S.m.x.x.S.dXcXjXfXS.Z.F.Z.Z.S.F.F.fXfXfXdXdXe.7 5 j #XFXNXDXDXDXSXSXSXSXSXSX",
"5X5X5X5X5XtXtXtXG O # # 0 >.c.$XA.=X%X%X%X&XdXdX&XS.m.x.x.m.m.m.&X&XS.Z.Z.S.fXS.Z.Z.Z.F.dXfXG.S.x.w 2 t C.FXSXvXvXvXvXvXSXDXDXSX",
"| | &.| &.-.=.=.z k F 2 ; <.c.c.m.m.A.S.%XdXgXgX&X%Xm.j.x.0.S 3.4.4.^ s.b.n.Z.S.F.F.F.F.Z.Z.Z.S.x.w w 6 zXLXJXHXJXJXJXHXHXHXHXGX",
"  . . .   . . . f :.Z 6 h =.u.c.v.m.A.%X%X%X&X%X%XS.m.h.^ 6 $ k V Z 1 7 K b.n.S.F.F.F.F.n.b.b.n.g.r M ^ IXPXPXPXPXPXPXPXPXPXIXJX",
"& = = = & & & X = >.6 h G v 9.u.u.z.v.m.A.m.m.m.m.S.%Xb.S e z k z j t M K n.F.n.Z.n.Z.Z.Z.b.b.k.8.Y d.=XLXJXLXIXIXLXLXIXIXLXFXtX",
"                  z 9.:.h f ,.9.9.0.u.z.v.x.x.x.b.S.%XA.3.A j 5 6 6 C 5.k.Z.fXn.n.b.n.b.b.k.j.h.Y B d.Z 8 0 d g f f l l l b d > ",
"                . . r.r.k h v =.,.>.6.0.e.g.h.h.x.b.x.h.8.S m S M V t A 8.b.S.Z.b.k.k.j.h.f.w.7.A / z.-   o                     ",
"o o o o         .   0 ,.:.h f v G G :.6.q.0.g.h.7.^ 7.H S V D / 4.S V V B / f.k.b.j.j.f.f.7.~ A A Z.T   +     o o               ",
").BXnXnXBXQ.B.Y.`.`.^.y.G f : l l v G R 9.0.6.A e j Z k 6 6 j V 6 m M M M S H A w.j.f.f.7.E D t B j.Q s p a ` [ [ [ [ [ } [ [ } ",
"AXAXUXAX{.'.'.'.|.ZXAXCX$.8 h d f l z :.6.e.E t z Z Z V J J L L J L L L M 1 1 7 N s.h.) D A C m 1 1 a.D.%.H.E.~._._.[.[.[.].].].",
"AXAX X(.(.'.'.].'.{..XZXBXI 2 0 g l z T 6.e.3.E 6.0.0.q.q.4.4.d.d.d.4.4.4.4.~ D m ) s.! D D q e P T U K z...#.W.~.~._.[.[.].].].",
"CX{.(.(.'.{.].].}.|.|.^. .> i i 0 f z G 6.6.6.0.0.0.q.3.:.H V V V S S ^ 7.s.h.s.^ ) 8.H A N e c X.@.J.x w.#.$.P.~._._.[.].].].|.",
"'.'.'.{.{.{.|.|.|. X|.{.%., f 8 : f l G 6.3.6.6.0.0.5.E F Z j t 3 t m D ~ / s.s.) ) / H Z t t { O.o.%.B  .+.O.J.R._.[._.].].}.}.",
"^.}. X|.XX X{. X XCXCXXX^.p G w > 0 0 T *.:.6.0.0.0.0.3.^ E E H V S S K / 8.s.8.) 8.( D j 3 V %.O.@.I { I.J.I.#.P.E.[.].].].|.|.",
"} o.T.^.{.CXCXCXCX XCXCXCXBXt.*.> = ; l G T :.6.h.g.h.h.g.h.0.^ V 4.s.s.j.j.f.8.) 4.! t 3 f h p.+.$.I.U.Y.U.I.J.I.Y.~.}.}.}..X X",
"@.} [ ..O.U.^..XCXZXZXZXCXBXy.1.v ; = ; l z G T E 3.g.h.0.7.E t 6 H 4.s.s.s./ ~ ! K m 2 r I 8 B V.T.U.T.T.R.Y.U.Y.Y.R.~.|.XX X X",
"~.O.{ ..{ { o.O.I.^..XBXZXCXi.2.;.l ; = : 0 f l z F F F F F h 2 4 e V S D D D A A r 5 2 ^ G * * t T ,.p.T.Q.Y.R.R.R.R.E.'. X XBX",
"'.Q.@.o.o.O.o.o.o.o.+.T.E.^.i.<.=.&.l > # ; 0 4 q e q 5 5 2 ; $ = $ 2 e e t r r Z w < C 8.x   @ o * u o.R.E.W.R.R.R.W.W.W.{.XX X",
"'.(.I.@.o.O.O.#.+.#.O.+.+.+.y.1.,.*.v d > # # # # # - ; ; # X O # # $ < 2 q e q 2 w A ! g.i.y.y.y.y. .* a O.Y.E.R.E.E.E.E.~.'.{.",
"(.(.W.P.O.O.+.+.+.+.J.J.I.$.t.9.<.*.v v f = O # O O X X O o   o O O $ 2 2 2 3 3 5 N ^ 8.0.VXMX!.KXKXy.* u u a } ......{ ..} } ..",
"~.~.~.E.+.+.+.H.H.U.I.#.} [ 1.<.<.,.*.v l f : = X X o o X X X . O # # # + % < 3 Z D s.w.l.2.p K.KXKXX.9 p * . & p s a a a s ` a ",
"~.~.W.E.Y.J.J.I.B.o.} u s 2.9.1.,.<.,.-.G v l g > > # X O = # O O # X o + < r Z H / s.f.l.| !.KXMXX.* * @ . * . * a a p a p a a ",
"(.W.W.W.W.I.#.o.[ u * 8 -.&.<.<.<.<.>.;.*.-.&.T v l g > - - $ - # $ % < e j A W ) 8.s.g.g.@XKXMXU  .c * b b g | ' X.X.X.X.X.X.X.",
"Y.I.B.#.o.{ [ a s g h F z v 1.1.9.<.;.;.;.;.*.-.=.=.-.G v k h h h j Z H 3.~ ~ ~ ) 8.g.l.s.r.FX,Xt.MXt.. t.t.K.K.K.!.!.!.!.!.<XL.",
"p a a u u * u [ 8 1.@X9.l G ;.<.<.<.,.;.:.;.;.=.*.=.=.;.*.R H H E ^ ! 5.5.5.5.7.7.s.w.g.e.r.&XkXD.r.c u * * * * * * u p u p s u ",
"[ a a p u s b d = d oX1.g -.=.1.<.<.<.<.<.*.*.=.*.*.*.=.;.:.:.:.! ! ! 3.3.( ( 7.7.s.w.g.0.r.D.D.:XbXv c i = . * * * * u u u u u ",
"^...s ] v i > @ > . b 1.&.-.=.;.>.<.<.>.;.;.;.;.*.*.&.-.*.*.:.:.W W W ^ ^ ~ ( 5.( / f.g.E 6.b.D.xX>.> i l l b i @ @ * * u u u u ",
" .b g g 8 > > + X & . | 1.1.&.<.<.>.>.>.>.>.;.*.=.*.&.&.G G F F A D W ! ~ ( 5.7.) s.f.8.Y >.v.A.*.O > > > d v | v b i i * y u u ",
"> > n n 4 - , * & = . 2.i.| r.*.,.>.>.>.>.:.,.>.,.;.*.-.G Z Z Z F W E 3.! 5.5.5.) s.8.E F i.u.z . ; = = ; 0 d b v l v v b i * * ",
"0 8 = > : : , * X & . v 2.  d 2.9.9.9.,.,.9.6.:.;.;.;.*.T F F H W E E ! ! ! 5.5.) f.3.6.z r.>   & @ > = : 8 : g g g d b | c i b ",
"8 : > > 8 > = > X X . b t.i   : ] ,.9.9.<.,.:.:.:.:.:.*.R R R R R E E 3.3.3.5.3.e.W 6.q l =.= & @ > = > = i d d : : > g &.| b b ",
"i : - - > : > O = = . = i.|   . g = > &.9.9.:.6.:.:.R T T T H W R E :.3.! E W D q $ G o v 1.o & = # ; > : d : 4 : : : d l v v l "
};
